<?xml version="1.0" encoding="UTF-8" standalone="no"?>
<!-- Created with Inkscape (http://www.inkscape.org/) -->

<svg
   xmlns:osb="http://www.openswatchbook.org/uri/2009/osb"
   xmlns:dc="http://purl.org/dc/elements/1.1/"
   xmlns:cc="http://creativecommons.org/ns#"
   xmlns:rdf="http://www.w3.org/1999/02/22-rdf-syntax-ns#"
   xmlns:svg="http://www.w3.org/2000/svg"
   xmlns="http://www.w3.org/2000/svg"
   xmlns:sodipodi="http://sodipodi.sourceforge.net/DTD/sodipodi-0.dtd"
   xmlns:inkscape="http://www.inkscape.org/namespaces/inkscape"
   inkscape:export-ydpi="91.400002"
   inkscape:export-xdpi="91.400002"
   inkscape:export-filename="/home/aleph/shared-j/Documents/Creative/logos_and_brand_guidelines/LulzBot_Logo_(R)/Vector/Black_BW/Lulzbot_Logo_Green"
   sodipodi:docname="Marlin_Logo_Landscape.svg"
   viewBox="0 0 480 272"
   height="272"
   width="480"
   xml:space="preserve"
   inkscape:version="0.91 r13725"
   version="1.1"
   id="svg2"><sodipodi:namedview
     inkscape:current-layer="g5284"
     inkscape:window-maximized="0"
     inkscape:window-y="69"
     inkscape:window-x="1325"
     inkscape:cy="93.314507"
     inkscape:cx="142.35099"
     inkscape:zoom="1.19"
     showgrid="false"
     id="namedview4"
     inkscape:window-height="732"
     inkscape:window-width="1430"
     inkscape:pageshadow="2"
     inkscape:pageopacity="0"
     guidetolerance="10"
     gridtolerance="10"
     objecttolerance="10"
     borderopacity="1"
     bordercolor="#666666"
     pagecolor="#fffff0"
     scale-x="1" /><metadata
     id="metadata8"><rdf:RDF><cc:Work
         rdf:about=""><dc:format>image/svg+xml</dc:format><dc:type
           rdf:resource="http://purl.org/dc/dcmitype/StillImage" /><dc:title /></cc:Work></rdf:RDF></metadata><defs
     id="defs6"><linearGradient
       id="linearGradient4829"
       osb:paint="solid"><stop
         style="stop-color:#c1d82f;stop-opacity:1;"
         offset="0"
         id="stop4827" /></linearGradient></defs><g
     style="display:inline"
     id="g4151"
     inkscape:groupmode="layer"
     inkscape:label="Fill"><g
       id="g4153"
       clip-path="url(#clipPath18)"
       style="fill:#ccff00;fill-opacity:0" /><path
       id="logo_fill"
       style="color:#000000;font-style:normal;font-variant:normal;font-weight:normal;font-stretch:normal;font-size:medium;line-height:normal;font-family:sans-serif;text-indent:0;text-align:start;text-decoration:none;text-decoration-line:none;text-decoration-style:solid;text-decoration-color:#000000;letter-spacing:normal;word-spacing:normal;text-transform:none;direction:ltr;block-progression:tb;writing-mode:lr-tb;baseline-shift:baseline;text-anchor:start;white-space:normal;clip-rule:nonzero;display:inline;overflow:visible;visibility:visible;opacity:1;isolation:auto;mix-blend-mode:normal;color-interpolation:sRGB;color-interpolation-filters:linearRGB;solid-color:#000000;solid-opacity:1;fill:#ffeeaa;fill-opacity:1;fill-rule:nonzero;stroke:none;stroke-width:3.04028749;stroke-linecap:butt;stroke-linejoin:miter;stroke-miterlimit:22.92560005;stroke-dasharray:none;stroke-dashoffset:0;stroke-opacity:1;color-rendering:auto;image-rendering:auto;shape-rendering:auto;text-rendering:auto;enable-background:accumulate"
       d="m 123.02929,89.714845 -8.60938,1.751953 -7.05469,4.769531 -4.76953,7.054691 -1.75195,8.60937 0,48.21094 1.75195,8.60937 4.76953,7.05469 7.05469,4.76953 8.60938,1.75196 233.9414,0 8.60938,-1.75196 7.05469,-4.76953 4.76953,-7.05469 1.75195,-8.60937 -0.0273,-70.408204 z"
       inkscape:connector-curvature="0"
       sodipodi:nodetypes="ccccccccccccccccc" /></g><g
     inkscape:label="Stroke"
     inkscape:groupmode="layer"
     id="g5284"
     style="display:inline"><g
       style="fill:#ccff00;fill-opacity:0"
       clip-path="url(#clipPath18)"
       id="g5286" /><path
       inkscape:connector-curvature="0"
       d="m 326.16602,89.703125 -203.13673,0.01172 -8.60938,1.751953 -7.05469,4.769531 -4.76953,7.054691 -1.75195,8.60937 0,48.21094 1.75195,8.60937 4.76953,7.05469 7.05469,4.76953 8.60938,1.75196 233.9414,0 8.60938,-1.75196 7.05469,-4.76953 4.76953,-7.05469 1.75195,-8.60937 -0.0273,-70.408204 z m -203.13672,4.943359 208.00781,0 43.1875,43.818356 0,21.64649 -1.35938,6.70508 -3.70507,5.48437 -5.48438,3.70508 -6.70508,1.35937 -233.9414,0 -6.70508,-1.35937 -5.48438,-3.70508 -3.70507,-5.48437 -1.35938,-6.70508 0,-48.21094 1.35938,-6.70508 3.70507,-5.484372 5.48438,-3.705079 z m 200.38039,47.868196 0,14.15674 -9.51758,0 0,-31.51128 -10.55755,0 0,31.51128 0,9.6769 10.55755,0 9.51758,0 10.55687,0 0,-9.6769 0,-14.39533 2.25905,-5.65886 5.73789,-2.17949 6.48848,3.0492 1.26916,4.78915 0,24.07223 8.40598,0 2.15228,-2.84652 0,-20.98712 -1.24221,-7.42906 -3.59666,-5.81701 -5.75623,-3.79261 -7.7208,-1.35583 -7.62241,1.40083 -5.85305,3.8676 -3.75378,5.83201 -1.32457,7.29407 0,0 0,0 m -80.63657,23.83364 -8.55693,0 -10.55755,0 0,-10.23688 0,-10.23757 -3.08902,-8.12781 -7.46785,-3.38901 -7.46783,3.28902 -3.08904,7.90781 3.11904,7.55818 7.67782,2.99938 6.0784,0 0,10.23688 -7.35835,0 -8.0078,-1.62958 -6.38824,-4.44882 -4.22883,-6.60825 -1.52959,-8.10779 1.55707,-8.27518 4.36125,-6.82049 6.70054,-4.63107 8.57486,-1.70697 8.52903,1.71196 6.67698,4.66608 4.35257,6.91549 1.55584,8.46017 0,10.23757 8.55693,0 0,-13.59676 1.3247,-7.29407 3.75409,-5.83201 5.85349,-3.8676 7.62291,-1.40083 7.72061,1.35583 5.75574,3.79261 3.59619,5.81701 1.24199,7.42906 0,1.83995 -10.55685,0 0,-2.07854 -1.2697,-4.78915 -6.48798,-3.0492 -5.73824,2.17949 -2.2594,5.65886 0,13.83605 0,10.23686 -10.55685,0 0,-6.8e-4 0,0 m -53.23159,-36.86972 -1.47334,-7.81405 -4.13507,-6.35199 -6.36949,-4.26758 -8.17654,-1.56083 -8.41772,1.94923 -6.37831,5.24913 -6.37794,-5.24887 -8.41738,-1.94949 -8.13029,1.56083 -6.34574,4.26758 -4.12634,6.35199 -1.47207,7.81405 0,34.98804 1.95819,1.88098 8.51866,0 0,-37.029 2.60914,-6.73822 6.98845,-2.77939 6.91759,2.77939 2.5993,6.73822 0,37.029 10.63757,0 0,-37.029 2.52904,-6.73822 6.90785,-2.77939 6.95785,2.77939 2.63904,6.73822 0,37.029 10.55685,0 0,-36.86902 7e-4,0 0,0 m 92.55618,19.59447 1.18835,7.62446 3.52018,5.68222 5.78473,3.32769 7.98194,0.56088 0,-9.5969 -5.86885,-1.48952 -1.9695,-6.10883 0,-42.22744 -10.63685,0 0,42.22744 0,0 0,0 m 31.7951,-28.39209 0,-5.9184 -1.55952,-3.74891 -3.71892,-1.52952 -3.78891,1.52952 -1.56951,3.74891 0,5.9184 10.63686,0 0,0 0,0"
       style="color:#000000;font-style:normal;font-variant:normal;font-weight:normal;font-stretch:normal;font-size:medium;line-height:normal;font-family:sans-serif;text-indent:0;text-align:start;text-decoration:none;text-decoration-line:none;text-decoration-style:solid;text-decoration-color:#000000;letter-spacing:normal;word-spacing:normal;text-transform:none;direction:ltr;block-progression:tb;writing-mode:lr-tb;baseline-shift:baseline;text-anchor:start;white-space:normal;clip-rule:nonzero;display:inline;overflow:visible;visibility:visible;opacity:1;isolation:auto;mix-blend-mode:normal;color-interpolation:sRGB;color-interpolation-filters:linearRGB;solid-color:#000000;solid-opacity:1;fill:#000000;fill-opacity:1;fill-rule:nonzero;stroke:none;stroke-width:3.04028749;stroke-linecap:butt;stroke-linejoin:miter;stroke-miterlimit:22.92560005;stroke-dasharray:none;stroke-dashoffset:0;stroke-opacity:1;color-rendering:auto;image-rendering:auto;shape-rendering:auto;text-rendering:auto;enable-background:accumulate"
       id="logo_stoke"
       sodipodi:nodetypes="ccccccccccccccccccccccccccccccccccccccccccccccccccccccccccccccccccccccccccccccccccccccccccccccccccccccccccccccccccccccccccccccccccccccccccccccccccccccccccccccccccccccccccc"
       inkscape:label="#logo_stroke" /></g></svg>