<?xml version="1.0" encoding="UTF-8" standalone="no"?>
<!-- Created with Inkscape (http://www.inkscape.org/) -->

<svg
   xmlns:osb="http://www.openswatchbook.org/uri/2009/osb"
   xmlns:dc="http://purl.org/dc/elements/1.1/"
   xmlns:cc="http://creativecommons.org/ns#"
   xmlns:rdf="http://www.w3.org/1999/02/22-rdf-syntax-ns#"
   xmlns:svg="http://www.w3.org/2000/svg"
   xmlns="http://www.w3.org/2000/svg"
   xmlns:sodipodi="http://sodipodi.sourceforge.net/DTD/sodipodi-0.dtd"
   xmlns:inkscape="http://www.inkscape.org/namespaces/inkscape"
   inkscape:export-ydpi="91.400002"
   inkscape:export-xdpi="91.400002"
   inkscape:export-filename="/home/aleph/shared-j/Documents/Creative/logos_and_brand_guidelines/LulzBot_Logo_(R)/Vector/Black_BW/Lulzbot_Logo_Green"
   sodipodi:docname="Marlin_Logo_Portrait.svg"
   viewBox="0 0 272 480"
   height="480"
   width="272"
   xml:space="preserve"
   inkscape:version="0.91 r13725"
   version="1.1"
   id="svg2"><sodipodi:namedview
     inkscape:current-layer="g4690"
     inkscape:window-maximized="0"
     inkscape:window-y="15"
     inkscape:window-x="1329"
     inkscape:cy="219.10398"
     inkscape:cx="136"
     inkscape:zoom="2.18"
     showgrid="false"
     id="namedview4"
     inkscape:window-height="628"
     inkscape:window-width="1243"
     inkscape:pageshadow="2"
     inkscape:pageopacity="0"
     guidetolerance="10"
     gridtolerance="10"
     objecttolerance="10"
     borderopacity="1"
     bordercolor="#666666"
     pagecolor="#fffff0"
     scale-x="1"
     inkscape:snap-bbox="true" /><metadata
     id="metadata8"><rdf:RDF><cc:Work
         rdf:about=""><dc:format>image/svg+xml</dc:format><dc:type
           rdf:resource="http://purl.org/dc/dcmitype/StillImage" /><dc:title /></cc:Work></rdf:RDF></metadata><defs
     id="defs6"><linearGradient
       osb:paint="solid"
       id="linearGradient4829"><stop
         id="stop4827"
         offset="0"
         style="stop-color:#c1d82f;stop-opacity:1;" /></linearGradient></defs><g
     style="display:inline"
     inkscape:label="Fill"
     id="g4690"
     inkscape:groupmode="layer"><path
       style="color:#000000;font-style:normal;font-variant:normal;font-weight:normal;font-stretch:normal;font-size:medium;line-height:normal;font-family:sans-serif;text-indent:0;text-align:start;text-decoration:none;text-decoration-line:none;text-decoration-style:solid;text-decoration-color:#000000;letter-spacing:normal;word-spacing:normal;text-transform:none;direction:ltr;block-progression:tb;writing-mode:lr-tb;baseline-shift:baseline;text-anchor:start;white-space:normal;clip-rule:nonzero;display:inline;overflow:visible;visibility:visible;opacity:1;isolation:auto;mix-blend-mode:normal;color-interpolation:sRGB;color-interpolation-filters:linearRGB;solid-color:#000000;solid-opacity:1;fill:#ffeeaa;fill-opacity:1;fill-rule:nonzero;stroke:none;stroke-width:3.04028749;stroke-linecap:butt;stroke-linejoin:miter;stroke-miterlimit:22.92560005;stroke-dasharray:none;stroke-dashoffset:0;stroke-opacity:1;color-rendering:auto;image-rendering:auto;shape-rendering:auto;text-rendering:auto;enable-background:accumulate"
       d="m 63.859375,211.45508 -5.308594,1.08008 -4.351562,2.9414 -2.941407,4.35156 -1.080078,5.3086 0,29.73437 1.080078,5.3086 2.941407,4.35156 4.351562,2.94141 5.308594,1.08007 144.281245,0 5.3086,-1.08007 4.35156,-2.94141 2.94141,-4.35156 1.08008,-5.3086 -0.0156,-43.42382 z"
       id="logo_fill"
       inkscape:connector-curvature="0"
       sodipodi:nodetypes="ccccccccccccccccc" /></g><g
     inkscape:groupmode="layer"
     id="g4719"
     inkscape:label="Stroke"
     style="display:inline"><path
       id="logo_stroke"
       style="color:#000000;font-style:normal;font-variant:normal;font-weight:normal;font-stretch:normal;font-size:medium;line-height:normal;font-family:sans-serif;text-indent:0;text-align:start;text-decoration:none;text-decoration-line:none;text-decoration-style:solid;text-decoration-color:#000000;letter-spacing:normal;word-spacing:normal;text-transform:none;direction:ltr;block-progression:tb;writing-mode:lr-tb;baseline-shift:baseline;text-anchor:start;white-space:normal;clip-rule:nonzero;display:inline;overflow:visible;visibility:visible;opacity:1;isolation:auto;mix-blend-mode:normal;color-interpolation:sRGB;color-interpolation-filters:linearRGB;solid-color:#000000;solid-opacity:1;fill:#000000;fill-opacity:1;fill-rule:nonzero;stroke:none;stroke-width:3.04028749;stroke-linecap:butt;stroke-linejoin:miter;stroke-miterlimit:22.92560005;stroke-dasharray:none;stroke-dashoffset:0;stroke-opacity:1;color-rendering:auto;image-rendering:auto;shape-rendering:auto;text-rendering:auto;enable-background:accumulate"
       d="m 63.859375,211.45508 -5.308594,1.08008 -4.351562,2.9414 -2.941407,4.35156 -1.080078,5.3086 0,29.73437 1.080078,5.3086 2.941407,4.35156 4.351562,2.94141 5.308594,1.08007 144.281245,0 5.3086,-1.08007 4.35156,-2.94141 2.94141,-4.35156 1.08008,-5.3086 -0.0156,-43.42382 z m 0,3.04101 128.287105,0 26.63477,27.02344 0,13.35156 -0.83789,4.13477 -2.28516,3.38281 -3.38281,2.28516 -4.13477,0.83789 -144.281245,0 -4.134766,-0.83789 -3.382812,-2.28516 -2.285156,-3.38281 -0.837891,-4.13477 0,-29.73437 0.837891,-4.13477 2.285156,-3.38281 3.382812,-2.28516 z m 123.582385,29.52204 0,8.73097 -5.86984,0 0,-19.43414 -6.51122,0 0,19.43414 0,5.96809 6.51122,0 5.86984,0 6.5108,0 0,-5.96809 0,-8.87812 1.39324,-3.49002 3.53876,-1.34417 4.00168,1.88055 0.78274,2.95364 0,14.84621 5.18427,0 1.32739,-1.75555 0,-12.94351 -0.76612,-4.58177 -2.21819,-3.58756 -3.55007,-2.33904 -4.7617,-0.83619 -4.70101,0.86394 -3.60979,2.38529 -2.31509,3.59681 -0.81691,4.49852 0,0 0,0 m -49.73147,14.69906 -5.27737,0 -6.51122,0 0,-6.31345 0,-6.31388 -1.90511,-5.01271 -4.60569,-2.09013 -4.60568,2.02846 -1.90512,4.87703 1.92362,4.6614 4.73519,1.84983 3.74877,0 0,6.31345 -4.53816,0 -4.9387,-1.00502 -3.93986,-2.74375 -2.60807,-4.07554 -0.94335,-5.00037 0.9603,-5.1036 2.68974,-4.20644 4.13246,-2.85615 5.28843,-1.05275 5.26016,1.05583 4.11793,2.87774 2.68439,4.26503 0.95954,5.21769 0,6.31388 5.27737,0 0,-8.38561 0.81699,-4.49852 2.31528,-3.59681 3.61006,-2.38529 4.70132,-0.86394 4.76157,0.83619 3.54977,2.33904 2.2179,3.58756 0.76598,4.58177 0,1.13476 -6.51079,0 0,-1.28191 -0.78307,-2.95364 -4.00136,-1.88055 -3.53898,1.34417 -1.39345,3.49002 0,8.53319 0,6.31344 -6.51079,0 0,-4.2e-4 0,0 m -32.82984,-22.73888 -0.90866,-4.81921 -2.55025,-3.9175 -3.928299,-2.63197 -5.042765,-0.96262 -5.191508,1.20216 -3.933731,3.23733 -3.933516,-3.23717 -5.191293,-1.20232 -5.014242,0.96262 -3.913648,2.63197 -2.544861,3.9175 -0.907885,4.81921 0,21.57838 1.207689,1.16007 5.253769,0 0,-22.83712 1.609144,-4.1557 4.310034,-1.71415 4.266328,1.71415 1.603083,4.1557 0,22.83712 6.560562,0 0,-22.83712 1.559753,-4.1557 4.260322,-1.71415 4.291156,1.71415 1.627592,4.1557 0,22.83712 6.510796,0 0,-22.73845 4.3e-4,0 0,0 m 57.08272,12.08461 0.7329,4.70228 2.17102,3.50443 3.56765,2.05231 4.92275,0.34591 0,-5.91875 -3.61953,-0.91864 -1.21466,-3.76754 0,-26.04318 -6.56013,0 0,26.04318 0,0 0,0 m 19.60918,-17.51042 0,-3.65009 -0.96181,-2.31209 -2.29359,-0.94331 -2.33676,0.94331 -0.96797,2.31209 0,3.65009 6.56013,0 0,0 0,0"
       inkscape:connector-curvature="0"
       sodipodi:nodetypes="cccccccccccccccccccccccccccccccccccccccccccccccccccccccccccccccccccccccccccccccccccccccccccccccccccccccccccccccccccccccccccccccccccccccccccccccccccccccccccccccccccccccccc" /></g></svg>